<svg xmlns="http://www.w3.org/2000/svg" width="32" height="32" viewBox="0 0 32 32"><g transform="translate(0 -1020.362)"><g transform="translate(459.009 -24)"><path style="isolation:auto;mix-blend-mode:normal;solid-color:#000;solid-opacity:1" fill="#bdd4fa" stroke="#000" stroke-linecap="round" stroke-linejoin="round" d="m -433.00859,1060.8622 1.99999,0 10e-6,0 0,14 -10e-6,0 -1.99999,0 0,0 0,-14 z" color="#000" enable-background="accumulate" overflow="visible"/><path d="m -433.00859,1045.8622 c -1.38501,0 -2.5,1.115 -2.5,2.5 l 0,7 c 0,1.1779 0.80922,2.1524 1.90234,2.4199 l -1.90234,3.0801 7,0 -1.90235,-3.0801 c 1.09313,-0.2675 1.90235,-1.242 1.90235,-2.4199 l 0,-7 c 0,-1.385 -1.11499,-2.5 -2.5,-2.5 l -2,0 z" style="isolation:auto;mix-blend-mode:normal;solid-color:#000;solid-opacity:1" fill="#f44336" stroke="#000" stroke-linecap="round" stroke-linejoin="round" color="#000" enable-background="accumulate" overflow="visible"/><path style="isolation:auto;mix-blend-mode:normal;solid-color:#000;solid-opacity:1" fill="#e4edfd" stroke="#000" stroke-linecap="round" stroke-linejoin="round" d="m -433.00859,1071.8622 1.99999,0 10e-6,0 0,2.9999 -10e-6,0 -1.99999,0 0,0 0,-2.9999 z" color="#000" enable-background="accumulate" overflow="visible"/><path style="isolation:auto;mix-blend-mode:normal;solid-color:#000;solid-opacity:1" fill="#e6ebeb" stroke="#000" stroke-linecap="round" stroke-linejoin="round" d="m -433.00859,1060.8622 1.99999,0 10e-6,0 0,14 -10e-6,0 -1.99999,0 0,0 0,-14 z" color="#000" enable-background="accumulate" overflow="visible"/><path d="m -448.51058,1045.8622 c -2.5,0 -6.41207,0.5005 -8.99804,5.9961 l 5.49804,0 c 1.38495,0 2.5,1.1151 2.5,2.5 l 0,0.5039 4,0 0,-2 0,-1 2,0 0,1 0,1 2.08399,0 1.91601,0 0,-8 -1.91601,0 -2.08399,0 0,1 0,1 -2,0 0,-1 -0.002,-1 -2.998,0 z" style="isolation:auto;mix-blend-mode:normal;solid-color:#000;solid-opacity:1" fill="#536565" stroke="#000" stroke-linecap="round" stroke-linejoin="round" color="#000" enable-background="accumulate" overflow="visible"/><path style="isolation:auto;mix-blend-mode:normal;solid-color:#000;solid-opacity:1" fill="#e6ebeb" stroke="#000" stroke-linecap="round" stroke-linejoin="round" d="m -449.51057,1054.8622 3.99999,0 0,0 0,20 0,0 -3.99999,0 -1e-5,0 0,-20 z" color="#000" enable-background="accumulate" overflow="visible"/><path style="isolation:auto;mix-blend-mode:normal;solid-color:#000;solid-opacity:1" fill="none" stroke="#000" stroke-linecap="round" stroke-linejoin="round" d="m -433.00859,1071.8622 1.99999,0 10e-6,0 0,2.9999 -10e-6,0 -1.99999,0 0,0 0,-2.9999 z" color="#000" enable-background="accumulate" overflow="visible"/><path style="isolation:auto;mix-blend-mode:normal;solid-color:#000;solid-opacity:1" fill="#c7cdcd" d="m -445.50977,1055.5927 c -1.33328,2.3093 -2.6667,4.6184 -4,6.9277 l 0,12.3418 4,0 0,-19.2695 z" color="#000" enable-background="accumulate" overflow="visible"/><path style="isolation:auto;mix-blend-mode:normal;solid-color:#000;solid-opacity:1" fill="#d0190c" d="m -428.50781,1051.6161 c -1.77942,3.082 -3.55848,6.1641 -5.33789,9.2461 l 5.33789,0 -1.90235,-3.0801 c 1.09313,-0.2675 1.90235,-1.242 1.90235,-2.4199 l 0,-3.7461 z" color="#000" enable-background="accumulate" overflow="visible"/><path style="isolation:auto;mix-blend-mode:normal;solid-color:#000;solid-opacity:1" fill="#344040" d="m -439.89258,1045.8622 c -1.20582,2.0885 -2.41137,4.1771 -3.61719,6.2656 l 0,0.7344 0,1 2.08399,0 1.91601,0 0,-8 -0.38281,0 z" color="#000" enable-background="accumulate" overflow="visible"/><path d="M-448.51058 1045.8622c-2.5 0-6.41207.5005-8.99804 5.9961l5.49804 0c1.38495 0 2.5 1.1151 2.5 2.5l0 .5039 4 0 0-2 0-1 2 0 0 1 0 1 2.08399 0 1.91601 0 0-8-1.91601 0-2.08399 0 0 1 0 1-2 0 0-1-.002-1-2.998 0zM-449.51057 1054.8622l3.99999 0 0 0 0 20 0 0-3.99999 0-.00001 0 0-20zM-433.00859 1045.8622c-1.38501 0-2.5 1.115-2.5 2.5l0 7c0 1.1779.80922 2.1524 1.90234 2.4199l-1.90234 3.0801 7 0-1.90235-3.0801c1.09313-.2675 1.90235-1.242 1.90235-2.4199l0-7c0-1.385-1.11499-2.5-2.5-2.5l-2 0z" style="isolation:auto;mix-blend-mode:normal;solid-color:#000;solid-opacity:1" fill="none" stroke="#000" stroke-linecap="round" stroke-linejoin="round" color="#000" enable-background="accumulate" overflow="visible"/><rect style="isolation:auto;mix-blend-mode:normal;solid-color:#000;solid-opacity:1" width="7" height="2" x="-435.509" y="1048.862" fill="#536565" stroke="#000" stroke-linecap="round" stroke-linejoin="round" color="#000" enable-background="accumulate" overflow="visible"/><rect width="7" height="2" x="-435.509" y="1052.862" style="isolation:auto;mix-blend-mode:normal;solid-color:#000;solid-opacity:1" fill="#536565" color="#000" enable-background="accumulate" overflow="visible"/><path style="isolation:auto;mix-blend-mode:normal;solid-color:#000;solid-opacity:1" fill="#ffc107" d="m -449.51057,1054.8622 4,0 0,0 0,3 0,0 -4,0 0,0 0,-3 z" color="#000" enable-background="accumulate" overflow="visible"/><path fill="#344040" d="m -429.22656,32.5 c -0.38486,0.666617 -0.76946,1.333378 -1.1543,2 l 1.87305,0 0,-2 -0.71875,0 z" color="#000" enable-background="accumulate" overflow="visible" transform="translate(0 1020.362)" style="isolation:auto;mix-blend-mode:normal;solid-color:#000;solid-opacity:1"/><rect style="isolation:auto;mix-blend-mode:normal;solid-color:#000;solid-opacity:1" width="7" height="2" x="-435.509" y="1052.862" fill="none" stroke="#000" stroke-linecap="round" stroke-linejoin="round" color="#000" enable-background="accumulate" overflow="visible"/><path fill="#dca500" d="m -445.50977,35.230469 c -0.43679,0.756549 -0.87373,1.513011 -1.31054,2.269531 l 1.31054,0 0,-2.269531 z" color="#000" enable-background="accumulate" overflow="visible" transform="translate(0 1020.362)" style="isolation:auto;mix-blend-mode:normal;solid-color:#000;solid-opacity:1"/><path d="m -449.51057,1054.8622 4,0 0,0 0,3 0,0 -4,0 0,0 0,-3 z" style="isolation:auto;mix-blend-mode:normal;solid-color:#000;solid-opacity:1" fill="none" stroke="#000" stroke-linecap="round" stroke-linejoin="round" color="#000" enable-background="accumulate" overflow="visible"/></g></g></svg>